<svg width="22" height="18" viewBox="0 0 22 18" fill="none" xmlns="http://www.w3.org/2000/svg">
<path d="M4.71429 11.4545C4.71429 11.0028 4.56083 10.6172 4.25391 10.2976C3.94699 9.97798 3.57664 9.81818 3.14286 9.81818C2.70908 9.81818 2.33873 9.97798 2.03181 10.2976C1.72489 10.6172 1.57143 11.0028 1.57143 11.4545C1.57143 11.9062 1.72489 12.2919 2.03181 12.6115C2.33873 12.9311 2.70908 13.0909 3.14286 13.0909C3.57664 13.0909 3.94699 12.9311 4.25391 12.6115C4.56083 12.2919 4.71429 11.9062 4.71429 11.4545ZM7.07143 5.72727C7.07143 5.27557 6.91797 4.88991 6.61105 4.57031C6.30413 4.25071 5.93378 4.09091 5.5 4.09091C5.06622 4.09091 4.69587 4.25071 4.38895 4.57031C4.08203 4.88991 3.92857 5.27557 3.92857 5.72727C3.92857 6.17898 4.08203 6.56463 4.38895 6.88423C4.69587 7.20384 5.06622 7.36364 5.5 7.36364C5.93378 7.36364 6.30413 7.20384 6.61105 6.88423C6.91797 6.56463 7.07143 6.17898 7.07143 5.72727ZM12.3259 11.8764L13.5658 6.9929C13.615 6.77131 13.5843 6.56463 13.4738 6.37287C13.3633 6.18111 13.2057 6.0554 13.0011 5.99574C12.7965 5.93608 12.6001 5.96378 12.4118 6.07884C12.2236 6.19389 12.1008 6.36222 12.0435 6.58381L10.8036 11.4673C10.3125 11.5099 9.87463 11.6953 9.48996 12.0234C9.10528 12.3516 8.84747 12.7713 8.71652 13.2827C8.55283 13.9389 8.63467 14.5611 8.96205 15.1491C9.28943 15.7372 9.76823 16.1165 10.3984 16.2869C11.0286 16.4574 11.6261 16.3722 12.1908 16.0312C12.7556 15.6903 13.1198 15.1918 13.2835 14.5355C13.4144 14.0241 13.3899 13.5256 13.2098 13.0398C13.0298 12.554 12.7351 12.1662 12.3259 11.8764ZM20.4286 11.4545C20.4286 11.0028 20.2751 10.6172 19.9682 10.2976C19.6613 9.97798 19.2909 9.81818 18.8571 9.81818C18.4234 9.81818 18.053 9.97798 17.7461 10.2976C17.4392 10.6172 17.2857 11.0028 17.2857 11.4545C17.2857 11.9062 17.4392 12.2919 17.7461 12.6115C18.053 12.9311 18.4234 13.0909 18.8571 13.0909C19.2909 13.0909 19.6613 12.9311 19.9682 12.6115C20.2751 12.2919 20.4286 11.9062 20.4286 11.4545ZM12.5714 3.27273C12.5714 2.82102 12.418 2.43537 12.111 2.11577C11.8041 1.79616 11.4338 1.63636 11 1.63636C10.5662 1.63636 10.1959 1.79616 9.88895 2.11577C9.58203 2.43537 9.42857 2.82102 9.42857 3.27273C9.42857 3.72443 9.58203 4.11009 9.88895 4.42969C10.1959 4.74929 10.5662 4.90909 11 4.90909C11.4338 4.90909 11.8041 4.74929 12.111 4.42969C12.418 4.11009 12.5714 3.72443 12.5714 3.27273ZM18.0714 5.72727C18.0714 5.27557 17.918 4.88991 17.611 4.57031C17.3041 4.25071 16.9338 4.09091 16.5 4.09091C16.0662 4.09091 15.6959 4.25071 15.389 4.57031C15.082 4.88991 14.9286 5.27557 14.9286 5.72727C14.9286 6.17898 15.082 6.56463 15.389 6.88423C15.6959 7.20384 16.0662 7.36364 16.5 7.36364C16.9338 7.36364 17.3041 7.20384 17.611 6.88423C17.918 6.56463 18.0714 6.17898 18.0714 5.72727ZM22 11.4545C22 13.679 21.423 15.7372 20.269 17.6293C20.1135 17.8764 19.8925 18 19.606 18H2.39397C2.10751 18 1.88653 17.8764 1.73103 17.6293C0.577009 15.7457 0 13.6875 0 11.4545C0 9.90341 0.290551 8.42045 0.871652 7.00568C1.45275 5.59091 2.23437 4.37216 3.21652 3.34943C4.19866 2.3267 5.36905 1.51278 6.72768 0.90767C8.08631 0.302557 9.51042 0 11 0C12.4896 0 13.9137 0.302557 15.2723 0.90767C16.631 1.51278 17.8013 2.3267 18.7835 3.34943C19.7656 4.37216 20.5472 5.59091 21.1283 7.00568C21.7094 8.42045 22 9.90341 22 11.4545Z" fill="#7C838A"/>
</svg>
