<svg width="24" height="24" viewBox="0 0 24 24" fill="none" xmlns="http://www.w3.org/2000/svg">
<rect width="24" height="24" fill="#1E1E1E"/>
<g id="Identifikasi Risiko" clip-path="url(#clip0_0_1)">
<rect width="1440" height="1198" transform="translate(-1319 -353)" fill="white"/>
<g id="Product" filter="url(#filter0_d_0_1)">
<g id="Rectangle 30" filter="url(#filter1_d_0_1)">
<path d="M-983 -208C-983 -224.569 -969.569 -238 -953 -238H61C77.5686 -238 91 -224.569 91 -208V743.432C91 760.001 77.5685 773.432 61 773.432H-953C-969.569 773.432 -983 760.001 -983 743.432V-208Z" fill="white"/>
</g>
<g id="Group 22">
</g>
<g id="Frame 301">
<g id="icon-park-outline:view-grid-detail">
<g id="Group">
<path id="Vector" d="M19.5 3H4.5C3.67157 3 3 3.67157 3 4.5V19.5C3 20.3284 3.67157 21 4.5 21H19.5C20.3284 21 21 20.3284 21 19.5V4.5C21 3.67157 20.3284 3 19.5 3Z" stroke="#757575" stroke-width="2" stroke-linejoin="round"/>
<path id="Vector_2" d="M6.5 6.5H10.5V10.5H6.5V6.5Z" stroke="#757575" stroke-width="2" stroke-linejoin="round"/>
<path id="Vector_3" d="M13.5 6.5H17.5M13.5 10H17.5M6.5 14H17.5M6.5 17.5H17.5" stroke="#757575" stroke-width="2" stroke-linecap="round" stroke-linejoin="round"/>
</g>
</g>
</g>
</g>
</g>
<defs>
<filter id="filter0_d_0_1" x="-987.252" y="-238" width="1082.25" height="1019.43" filterUnits="userSpaceOnUse" color-interpolation-filters="sRGB">
<feFlood flood-opacity="0" result="BackgroundImageFix"/>
<feColorMatrix in="SourceAlpha" type="matrix" values="0 0 0 0 0 0 0 0 0 0 0 0 0 0 0 0 0 0 127 0" result="hardAlpha"/>
<feOffset dy="4"/>
<feGaussianBlur stdDeviation="2"/>
<feComposite in2="hardAlpha" operator="out"/>
<feColorMatrix type="matrix" values="0 0 0 0 0 0 0 0 0 0 0 0 0 0 0 0 0 0 0.25 0"/>
<feBlend mode="normal" in2="BackgroundImageFix" result="effect1_dropShadow_0_1"/>
<feBlend mode="normal" in="SourceGraphic" in2="effect1_dropShadow_0_1" result="shape"/>
</filter>
<filter id="filter1_d_0_1" x="-1043" y="-288" width="1194" height="1131.43" filterUnits="userSpaceOnUse" color-interpolation-filters="sRGB">
<feFlood flood-opacity="0" result="BackgroundImageFix"/>
<feColorMatrix in="SourceAlpha" type="matrix" values="0 0 0 0 0 0 0 0 0 0 0 0 0 0 0 0 0 0 127 0" result="hardAlpha"/>
<feOffset dy="10"/>
<feGaussianBlur stdDeviation="30"/>
<feComposite in2="hardAlpha" operator="out"/>
<feColorMatrix type="matrix" values="0 0 0 0 0.885625 0 0 0 0 0.92625 0 0 0 0 0.975 0 0 0 0.5 0"/>
<feBlend mode="normal" in2="BackgroundImageFix" result="effect1_dropShadow_0_1"/>
<feBlend mode="normal" in="SourceGraphic" in2="effect1_dropShadow_0_1" result="shape"/>
</filter>
<clipPath id="clip0_0_1">
<rect width="1440" height="1198" fill="white" transform="translate(-1319 -353)"/>
</clipPath>
</defs>
</svg>
