<svg width="33" height="33" viewBox="0 0 33 33" fill="none" xmlns="http://www.w3.org/2000/svg">
<g clip-path="url(#clip0_11_203)">
<path d="M29.8263 14.4478C29.0039 14.4478 22.1745 15.229 18.5522 15.6518C21.4113 13.3882 26.7919 9.11109 27.3771 8.52844C29.2076 6.69539 28.5734 5.51203 28.032 4.97063C27.1348 4.07344 25.8277 4.26937 24.4741 5.62547C23.8915 6.20812 19.6144 11.5887 17.3508 14.4478C17.771 10.8255 18.5548 3.99609 18.5548 3.17367C18.5548 0.580078 17.2683 0.193359 16.5026 0.193359C15.7369 0.193359 14.4504 0.580078 14.4504 3.17367C14.4504 3.99609 15.2316 10.8281 15.6518 14.4478C13.3882 11.5887 9.11109 6.20812 8.52844 5.62547C7.17234 4.26937 5.86781 4.07344 4.97063 4.97063C4.41891 5.52234 4.27195 6.24422 4.55555 7.00219C4.73602 7.4843 5.09695 7.99734 5.62547 8.52844C6.20812 9.11109 11.5887 13.3856 14.4478 15.6492C10.8255 15.229 3.99609 14.4452 3.17109 14.4452C0.580078 14.4478 0.193359 15.7343 0.193359 16.5C0.193359 17.2657 0.580078 18.5522 3.17109 18.5522C3.99609 18.5522 10.823 17.771 14.4452 17.3508C11.5861 19.6144 6.20555 23.8915 5.62289 24.4741C5.09437 25.0027 4.73344 25.5157 4.55297 25.9978C4.2668 26.7584 4.41633 27.4802 4.96805 28.0294C5.33414 28.3929 5.78016 28.5888 6.25969 28.5888C6.96094 28.5888 7.72148 28.1815 8.52586 27.3771C9.10852 26.7945 13.3856 21.4113 15.6492 18.5522C15.229 22.1745 14.4478 29.0039 14.4478 29.8289C14.4478 32.4199 15.7343 32.8066 16.5 32.8066C17.2657 32.8066 18.5522 32.4199 18.5522 29.8289C18.5522 29.0039 17.771 22.177 17.3482 18.5548C19.6118 21.4139 23.8889 26.7945 24.4716 27.3771C25.2759 28.1815 26.0391 28.5888 26.7403 28.5888C27.2198 28.5888 27.6659 28.3955 28.0294 28.0294C28.5708 27.488 29.2076 26.3046 27.3745 24.4716C26.7919 23.8889 21.4113 19.6118 18.5496 17.3482C22.1719 17.7684 29.0013 18.5496 29.8238 18.5496C32.4173 18.5496 32.8041 17.2657 32.8041 16.4974C32.8066 15.7343 32.4199 14.4478 29.8263 14.4478Z" fill="#F79329"/>
</g>
<defs>
<clipPath id="clip0_11_203">
<rect width="33" height="33" fill="white"/>
</clipPath>
</defs>
</svg>
