<svg width="16" height="16" viewBox="0 0 16 16" fill="none" xmlns="http://www.w3.org/2000/svg">
<path d="M8.00004 8.9335L9.93337 10.8668C10.0556 10.9891 10.2112 11.0502 10.4 11.0502C10.5889 11.0502 10.7445 10.9891 10.8667 10.8668C10.9889 10.7446 11.05 10.5891 11.05 10.4002C11.05 10.2113 10.9889 10.0557 10.8667 9.9335L8.93337 8.00016L10.8667 6.06683C10.9889 5.94461 11.05 5.78905 11.05 5.60016C11.05 5.41127 10.9889 5.25572 10.8667 5.1335C10.7445 5.01127 10.5889 4.95016 10.4 4.95016C10.2112 4.95016 10.0556 5.01127 9.93337 5.1335L8.00004 7.06683L6.06671 5.1335C5.94449 5.01127 5.78893 4.95016 5.60004 4.95016C5.41115 4.95016 5.2556 5.01127 5.13337 5.1335C5.01115 5.25572 4.95004 5.41127 4.95004 5.60016C4.95004 5.78905 5.01115 5.94461 5.13337 6.06683L7.06671 8.00016L5.13337 9.9335C5.01115 10.0557 4.95004 10.2113 4.95004 10.4002C4.95004 10.5891 5.01115 10.7446 5.13337 10.8668C5.2556 10.9891 5.41115 11.0502 5.60004 11.0502C5.78893 11.0502 5.94449 10.9891 6.06671 10.8668L8.00004 8.9335ZM8.00004 14.6668C7.07782 14.6668 6.21115 14.4917 5.40004 14.1415C4.58893 13.7913 3.88337 13.3164 3.28338 12.7168C2.68338 12.1173 2.20849 11.4117 1.85871 10.6002C1.50893 9.78861 1.33382 8.92194 1.33337 8.00016C1.33293 7.07838 1.50804 6.21172 1.85871 5.40016C2.20937 4.58861 2.68426 3.88305 3.28338 3.2835C3.88249 2.68394 4.58804 2.20905 5.40004 1.85883C6.21204 1.50861 7.07871 1.3335 8.00004 1.3335C8.92137 1.3335 9.78804 1.50861 10.6 1.85883C11.412 2.20905 12.1176 2.68394 12.7167 3.2835C13.3158 3.88305 13.7909 4.58861 14.142 5.40016C14.4932 6.21172 14.668 7.07838 14.6667 8.00016C14.6654 8.92194 14.4903 9.78861 14.1414 10.6002C13.7925 11.4117 13.3176 12.1173 12.7167 12.7168C12.1158 13.3164 11.4103 13.7915 10.6 14.1422C9.78982 14.4928 8.92315 14.6677 8.00004 14.6668ZM8.00004 13.3335C9.48893 13.3335 10.75 12.8168 11.7834 11.7835C12.8167 10.7502 13.3334 9.48905 13.3334 8.00016C13.3334 6.51127 12.8167 5.25016 11.7834 4.21683C10.75 3.1835 9.48893 2.66683 8.00004 2.66683C6.51115 2.66683 5.25004 3.1835 4.21671 4.21683C3.18337 5.25016 2.66671 6.51127 2.66671 8.00016C2.66671 9.48905 3.18337 10.7502 4.21671 11.7835C5.25004 12.8168 6.51115 13.3335 8.00004 13.3335Z" fill="white"/>
</svg>
