<svg width="28" height="28" viewBox="0 0 28 28" fill="none" xmlns="http://www.w3.org/2000/svg">
<path fill-rule="evenodd" clip-rule="evenodd" d="M11.1615 6.12502C11.2127 6.03634 11.2863 5.96271 11.375 5.91152C11.4637 5.86032 11.5643 5.83337 11.6667 5.83337C11.7691 5.83337 11.8696 5.86032 11.9583 5.91152C12.047 5.96271 12.1206 6.03634 12.1718 6.12502L15.1002 11.2018C14.8078 11.9335 14.6852 12.7221 14.7415 13.508C14.7978 14.294 15.0317 15.057 15.4254 15.7396C15.8191 16.4222 16.3624 17.0066 17.0146 17.449C17.6667 17.8913 18.4107 18.18 19.1905 18.2933L20.9201 21.2928C20.9713 21.3816 20.9983 21.4822 20.9982 21.5847C20.9982 21.6871 20.9712 21.7877 20.9199 21.8764C20.8687 21.9651 20.795 22.0388 20.7062 22.0899C20.6174 22.1411 20.5168 22.1679 20.4143 22.1678H2.91842C2.81602 22.1678 2.71543 22.1409 2.62676 22.0897C2.53808 22.0385 2.46444 21.9649 2.41325 21.8762C2.36205 21.7875 2.3351 21.6869 2.3351 21.5845C2.3351 21.4821 2.36205 21.3815 2.41325 21.2928L11.1615 6.12502ZM10.9369 18.9875V17.5292H12.3964V18.9875H10.9369ZM11.6667 11.6929C11.2642 11.6929 10.9375 12.0196 10.9375 12.4221V15.6304C10.9375 15.824 11.0144 16.0096 11.1512 16.1464C11.2881 16.2833 11.4737 16.3602 11.6672 16.3602C11.8608 16.3602 12.0464 16.2833 12.1833 16.1464C12.3201 16.0096 12.397 15.824 12.397 15.6304V12.4221C12.397 12.0196 12.0697 11.6929 11.6667 11.6929Z" fill="#9197B3"/>
<path fill-rule="evenodd" clip-rule="evenodd" d="M15.8958 13.1047C15.897 12.9452 15.9073 12.7887 15.9267 12.6351C16.0018 12.0313 16.212 11.4522 16.5418 10.9409C16.8716 10.4297 17.3124 9.99937 17.8316 9.68208C18.3507 9.36478 18.9347 9.16866 19.5401 9.10832C20.1455 9.04798 20.7567 9.12498 21.3283 9.33357C21.8998 9.54216 22.4169 9.87698 22.8411 10.3131C23.2654 10.7492 23.5858 11.2754 23.7785 11.8525C23.9712 12.4296 24.0312 13.0427 23.9541 13.6462C23.8771 14.2497 23.6649 14.8281 23.3333 15.3382L25.669 17.6739L24.7893 18.5542L22.5015 16.2663C21.7798 16.8588 20.8745 17.182 19.9407 17.1804C19.3992 17.1813 18.8631 17.073 18.3645 16.8619C17.8694 16.6516 17.421 16.3451 17.0454 15.96C16.6697 15.575 16.3744 15.1192 16.1764 14.619C15.9902 14.1468 15.895 13.6437 15.8958 13.1362V13.1047ZM19.9401 15.9362C20.3078 15.9362 20.6719 15.8637 21.0116 15.723C21.3513 15.5823 21.66 15.3761 21.92 15.1161C22.18 14.856 22.3862 14.5474 22.5269 14.2077C22.6677 13.868 22.7401 13.5039 22.7401 13.1362C22.7401 12.7685 22.6677 12.4043 22.5269 12.0646C22.3862 11.7249 22.18 11.4163 21.92 11.1563C21.66 10.8962 21.3513 10.69 21.0116 10.5493C20.6719 10.4086 20.3078 10.3362 19.9401 10.3362C19.1975 10.3362 18.4853 10.6312 17.9602 11.1563C17.4351 11.6814 17.1401 12.3935 17.1401 13.1362C17.1401 13.8788 17.4351 14.5909 17.9602 15.1161C18.4853 15.6412 19.1975 15.9362 19.9401 15.9362Z" fill="#9197B3"/>
</svg>
