<svg width="21" height="21" viewBox="0 0 21 21" fill="none" xmlns="http://www.w3.org/2000/svg">
<path fill-rule="evenodd" clip-rule="evenodd" d="M17.736 0.146853C18.1709 -0.0115295 18.642 -0.0425492 19.094 0.0574397C19.546 0.157429 19.96 0.384271 20.2874 0.711307C20.6148 1.03834 20.842 1.45198 20.9423 1.90361C21.0425 2.35523 21.0117 2.82608 20.8535 3.26081L15.489 19.3286C15.3585 19.7234 15.1288 20.0782 14.8219 20.3589C14.5149 20.6397 14.141 20.837 13.7359 20.932C13.3318 21.0303 12.9091 21.0219 12.5091 20.9078C12.1092 20.7937 11.7458 20.5777 11.4545 20.2811L8.57565 17.4176L5.55273 18.9806C5.43686 19.0406 5.30731 19.0694 5.17689 19.0642C5.04646 19.0589 4.91967 19.0197 4.80904 18.9505C4.6984 18.8813 4.60774 18.7844 4.54601 18.6695C4.48428 18.5545 4.45361 18.4255 4.45704 18.2951L4.58162 13.5192L15.1558 5.84377C15.2556 5.77138 15.3401 5.68006 15.4045 5.57504C15.4689 5.47002 15.512 5.35334 15.5313 5.23168C15.5506 5.11001 15.5457 4.98574 15.517 4.86595C15.4882 4.74616 15.4362 4.63321 15.3637 4.53354C15.2913 4.43387 15.1999 4.34943 15.0948 4.28505C14.9897 4.22066 14.873 4.1776 14.7512 4.15831C14.6295 4.13902 14.5051 4.14388 14.3853 4.17261C14.2654 4.20135 14.1524 4.2534 14.0526 4.32579L3.2998 12.1317L0.703155 9.53671C0.423307 9.25697 0.216988 8.91244 0.102553 8.53377C-0.0118812 8.15509 -0.0308829 7.75403 0.0472386 7.36625C0.125654 6.94247 0.315437 6.54715 0.597129 6.22083C0.87882 5.89452 1.24228 5.64894 1.65026 5.50927H1.65626L17.736 0.146853Z" fill="#397BF4"/>
</svg>
